<?xml version="1.0" encoding="UTF-8" standalone="no"?>
<!-- Created with Inkscape (http://www.inkscape.org/) -->

<svg
   width="210mm"
   height="297mm"
   viewBox="0 0 210 297"
   version="1.1"
   id="svg1"
   inkscape:version="1.3 (0e150ed6c4, 2023-07-21)"
   sodipodi:docname="template-for-other-icons.svg"
   xmlns:inkscape="http://www.inkscape.org/namespaces/inkscape"
   xmlns:sodipodi="http://sodipodi.sourceforge.net/DTD/sodipodi-0.dtd"
   xmlns="http://www.w3.org/2000/svg"
   xmlns:svg="http://www.w3.org/2000/svg">
  <sodipodi:namedview
     id="namedview1"
     pagecolor="#ffffff"
     bordercolor="#000000"
     borderopacity="0.25"
     inkscape:showpageshadow="2"
     inkscape:pageopacity="0.0"
     inkscape:pagecheckerboard="0"
     inkscape:deskcolor="#d1d1d1"
     inkscape:document-units="mm"
     inkscape:zoom="1.4627806"
     inkscape:cx="249.86659"
     inkscape:cy="206.79793"
     inkscape:window-width="1920"
     inkscape:window-height="1017"
     inkscape:window-x="-8"
     inkscape:window-y="472"
     inkscape:window-maximized="1"
     inkscape:current-layer="layer2" />
  <defs
     id="defs1">
    <inkscape:path-effect
       effect="powerclip"
       id="path-effect8"
       is_visible="true"
       lpeversion="1"
       inverse="true"
       flatten="false"
       hide_clip="false"
       message="Use fill-rule evenodd on &lt;b&gt;fill and stroke&lt;/b&gt; dialog if no flatten result after convert clip to paths." />
    <clipPath
       clipPathUnits="userSpaceOnUse"
       id="clipPath8">
      <circle
         style="display:none;opacity:0.5;fill:#ff0000;fill-opacity:0.984456;stroke-width:0.264583"
         id="circle8"
         cx="79.375"
         cy="79.375"
         r="52.916668"
         inkscape:label="cutting-circle"
         d="M 132.29167,79.375 A 52.916668,52.916668 0 0 1 79.375,132.29167 52.916668,52.916668 0 0 1 26.458332,79.375 52.916668,52.916668 0 0 1 79.375,26.458332 52.916668,52.916668 0 0 1 132.29167,79.375 Z" />
      <path
         id="lpe_path-effect8"
         style="opacity:0.5;fill:#ff0000;fill-opacity:0.984456;stroke-width:0.264583"
         class="powerclip"
         d="M -5,-5 H 163.75 V 163.75 H -5 Z M 132.29167,79.375 A 52.916668,52.916668 0 0 0 79.375,26.458332 52.916668,52.916668 0 0 0 26.458332,79.375 52.916668,52.916668 0 0 0 79.375,132.29167 52.916668,52.916668 0 0 0 132.29167,79.375 Z" />
    </clipPath>
  </defs>
  <g
     inkscape:groupmode="layer"
     id="layer2"
     inkscape:label="outer-ring">
    <path
       style="fill:#4d4d4d;stroke-width:0.264583"
       id="path2"
       inkscape:label="outer circle"
       clip-path="url(#clipPath8)"
       inkscape:path-effect="#path-effect8"
       sodipodi:type="arc"
       sodipodi:cx="79.375"
       sodipodi:cy="79.375"
       sodipodi:rx="79.375"
       sodipodi:ry="79.375"
       d="M 158.75,79.375 A 79.375,79.375 0 0 1 79.375,158.75 79.375,79.375 0 0 1 0,79.375 79.375,79.375 0 0 1 79.375,0 79.375,79.375 0 0 1 158.75,79.375 Z" />
    <rect
       style="opacity:0.5;fill:#ff0000;fill-opacity:0.984456;stroke-width:0.385523"
       id="rect8-9"
       width="5"
       height="179.55901"
       x="77.499901"
       y="-11.922488"
       inkscape:label="cutting line" />
    <rect
       style="opacity:0.5;fill:#ff0000;fill-opacity:0.984456;stroke-width:0.385523"
       id="rect8-1"
       width="5"
       height="179.55901"
       x="75.303154"
       y="-169.7794"
       inkscape:label="cutting line"
       transform="rotate(90)" />
    <rect
       style="opacity:0.5;fill:#ff0000;fill-opacity:0.984456;stroke-width:0.385523"
       id="rect8-0"
       width="5"
       height="179.55901"
       x="109.32233"
       y="-91.094124"
       inkscape:label="cutting line"
       transform="rotate(45)" />
    <rect
       style="opacity:0.5;fill:#ff0000;fill-opacity:0.984456;stroke-width:0.385523"
       id="rect8"
       width="5"
       height="179.55901"
       x="-1.1852503"
       y="22.042833"
       inkscape:label="cutting line"
       transform="rotate(-45)" />
  </g>
  <g
     inkscape:label="Layer 1"
     inkscape:groupmode="layer"
     id="layer1"
     inkscape:export-filename="dot.svg"
     inkscape:export-xdpi="48"
     inkscape:export-ydpi="48"
     style="display:none">
    <circle
       style="fill:#000000;stroke-width:0.264583"
       id="path1"
       cx="79.375"
       cy="79.375"
       r="39.6875"
       inkscape:label="inner circle" />
  </g>
</svg>
